<?xml version="1.0" encoding="utf-8"?>
<!-- Generator: Adobe Illustrator 25.0.0, SVG Export Plug-In . SVG Version: 6.00 Build 0)  -->
<svg version="1.1" id="Layer_1" xmlns="http://www.w3.org/2000/svg" xmlns:xlink="http://www.w3.org/1999/xlink" x="0px" y="0px"
	 viewBox="0 0 270 54" style="enable-background:new 0 0 270 54;" xml:space="preserve"  width="270"
   height="54">
<style type="text/css">
	.st0{fill:#3367D6;}
	.st1{fill:#FFFFFF;}
	.st2{font-family:'Roboto-Regular';}
	.st3{font-size:13px;}
</style>
<g id="layer1" transform="translate(0,-6)">
	<path id="rect3101" class="st0" d="M6.4,7.7h257.1c2.6,0,4.7,2.1,4.7,4.7v41.2c0,2.6-2.1,4.7-4.7,4.7H6.4c-2.6,0-4.7-2.1-4.7-4.7
		V12.4C1.8,9.8,3.9,7.7,6.4,7.7z"/>
</g>
<g id="layer2">
	<text id="text4303" transform="matrix(1 0 0 1 52.473 31.9766)" class="st1 st2 st3">     START SETUP AND TUTORIAL</text>
	<g id="g3949" transform="matrix(1.1349981,0,0,1.1349981,16.464659,15.380023)">
		<path id="path3937" class="st1" d="M21,2H3C1.9,2,1,2.9,1,4v11.9c0,1.1,0.9,2,2,2h7V20H8v2h8v-2h-2v-2.2h7c1.1,0,2-0.9,2-2V4
			C23,2.9,22.1,2,21,2z M17,15h-4v-2h4V15z M17.1,10.2l-9.9,4.1v-2.1l7.2-3.1l-7.2-3v-2l9.9,4.1C17.1,8.2,17.1,10.2,17.1,10.2z"/>
		<path id="path3939" class="st1" d="M10,17.8h4V20h-4V17.8z"/>
		<path id="path3941" class="st1" d="M8,20h8v2H8V20z"/>
	</g>
</g>
</svg>
